HIERARCHY
ROOT joint_0
{
	OFFSET -212.520721 120.562408 434.227997
	CHANNELS 6 Xposition Yposition Zposition Zrotation Yrotation Xrotation 
	JOINT joint_1
	{
		OFFSET -0.259635 -29.370764 -7.040390
		CHANNELS 3 Zrotation Yrotation Xrotation
		JOINT joint_2
		{
			OFFSET 0.103584 1.856229 10.547143
			CHANNELS 3 Zrotation Yrotation Xrotation
			JOINT joint_3
			{
				OFFSET 43.438629 -0.000027 -0.000008
				CHANNELS 3 Zrotation Yrotation Xrotation
				JOINT joint_4
				{
					OFFSET 42.290081 0.000007 -0.000009
					CHANNELS 3 Zrotation Yrotation Xrotation
					JOINT joint_5
					{
						OFFSET 17.317598 -0.000002 -0.000001
						CHANNELS 3 Zrotation Yrotation Xrotation
						End Site
						{
							OFFSET 0.000000 0.000000 0.000000
						}
					}
				}
			}
		}
		JOINT joint_6
		{
			OFFSET 0.103606 1.856078 -10.547150
			CHANNELS 3 Zrotation Yrotation Xrotation
			JOINT joint_7
			{
				OFFSET 43.450745 -0.000024 0.000009
				CHANNELS 3 Zrotation Yrotation Xrotation
				JOINT joint_8
				{
					OFFSET 42.296028 0.000008 0.000009
					CHANNELS 3 Zrotation Yrotation Xrotation
					JOINT joint_9
					{
						OFFSET 17.320156 -0.000002 0.000002
						CHANNELS 3 Zrotation Yrotation Xrotation
						End Site
						{
							OFFSET 0.000000 0.000000 0.000000
						}
					}
				}
			}
		}
		JOINT joint_10
		{
			OFFSET 6.902067 -2.607064 -0.000000
			CHANNELS 3 Zrotation Yrotation Xrotation
			JOINT joint_11
			{
				OFFSET 12.585402 0.000006 0.000001
				CHANNELS 3 Zrotation Yrotation Xrotation
				JOINT joint_12
				{
					OFFSET 12.328373 -0.000004 -0.000000
					CHANNELS 3 Zrotation Yrotation Xrotation
					JOINT joint_13
					{
						OFFSET 25.816742 -0.000002 -0.000001
						CHANNELS 3 Zrotation Yrotation Xrotation
						JOINT joint_14
						{
							OFFSET 11.746256 0.000001 -0.000000
							CHANNELS 3 Zrotation Yrotation Xrotation
							End Site
							{
								OFFSET 0.000000 0.000000 0.000000
							}
						}
					}
					JOINT joint_15
					{
						OFFSET 19.732920 -1.479941 6.001546
						CHANNELS 3 Zrotation Yrotation Xrotation
						JOINT joint_16
						{
							OFFSET 11.302776 -0.000014 -0.000002
							CHANNELS 3 Zrotation Yrotation Xrotation
							JOINT joint_17
							{
								OFFSET 32.960747 0.000012 0.000011
								CHANNELS 3 Zrotation Yrotation Xrotation
								JOINT joint_18
								{
									OFFSET 25.215895 0.000080 -0.000198
									CHANNELS 3 Zrotation Yrotation Xrotation
									End Site
									{
										OFFSET 0.000000 0.000000 0.000000
									}
								}
							}
						}
					}
					JOINT joint_19
					{
						OFFSET 19.728712 -1.479918 -6.001591
						CHANNELS 3 Zrotation Yrotation Xrotation
						JOINT joint_20
						{
							OFFSET 11.302378 -0.000012 0.000005
							CHANNELS 3 Zrotation Yrotation Xrotation
							JOINT joint_21
							{
								OFFSET 32.942463 0.000015 -0.000008
								CHANNELS 3 Zrotation Yrotation Xrotation
								JOINT joint_22
								{
									OFFSET 25.213564 0.000080 0.000206
									CHANNELS 3 Zrotation Yrotation Xrotation
									End Site
									{
										OFFSET 0.000000 0.000000 0.000000
									}
								}
							}
						}
					}
				}
			}
		}
	}
}
MOTION
Frames: 5
Frame Time: 0.016667
-212.520721 120.562408 434.227997 0.000000 -8.332734 0.000000 89.076103 -8.400531 88.155769 170.012268 -4.753911 149.625961 -1.381452 3.691827 -59.368725 -5.312793 -0.266796 84.719040 0.000009 0.003100 21.480820 -172.375656 3.909640 147.864029 1.997675 -4.155672 -52.640568 4.535506 -0.708980 84.168053 -0.000009 -0.003101 21.483004 -0.144149 -0.188661 8.739172 0.032903 0.109011 7.298764 -0.440782 0.341008 7.321307 -1.722457 0.325249 6.488604 -1.112113 0.931430 -7.259096 -1.359458 -79.265923 -179.970276 20.957176 45.550945 -12.336223 0.853278 -12.642305 -52.594791 24.431633 -12.242814 3.850215 6.819788 78.045471 -174.446228 -17.287815 -44.209927 -11.960582 -0.443878 11.581827 -49.527534 -20.425316 13.466105 3.657640 
-212.819672 120.543900 435.591125 0.000000 -8.479640 0.000000 89.122192 -8.464076 88.112854 169.942810 -4.855375 149.943771 -1.302379 3.700161 -59.365345 -5.398009 -0.245922 84.679680 0.000009 0.003100 21.480806 -172.322693 3.896630 147.655624 1.879383 -4.126432 -52.620949 4.556568 -0.696812 84.065598 -0.000009 -0.003101 21.483107 -0.138449 -0.178048 8.722842 0.050666 0.089201 7.318546 -0.421593 0.309856 7.334462 -1.583173 0.275084 6.527709 -0.861199 0.883015 -7.359209 -1.281088 -79.279671 179.950546 20.851816 45.514816 -12.278478 0.948605 -12.698530 -52.866737 24.400192 -12.360655 3.777608 6.387699 78.061546 -174.889709 -17.635283 -44.091629 -11.634738 -0.456928 11.641438 -49.725372 -20.305143 13.462152 3.651540 
-213.131073 120.526382 436.976898 0.000000 -8.619189 0.000000 89.172249 -8.535918 88.103073 169.875656 -4.931827 150.260757 -1.249424 3.689660 -59.372604 -5.457410 -0.243608 84.626297 0.000009 0.003100 21.480810 -172.251343 3.876955 147.373672 1.819403 -4.079743 -52.554256 4.617458 -0.677223 83.982353 -0.000009 -0.003102 21.483156 -0.138267 -0.170308 8.714496 0.074332 0.066321 7.336968 -0.414512 0.279287 7.360697 -1.437621 0.213045 6.579012 -0.621259 0.901025 -7.489689 -1.125064 -79.281761 179.789322 20.775753 45.432972 -12.234918 1.075788 -12.753737 -53.159111 24.394581 -12.476484 3.688071 5.791669 78.046219 -175.499741 -17.964764 -43.948826 -11.318818 -0.509775 11.676217 -49.913960 -20.156183 13.405681 3.680201 
-213.453751 120.508919 438.387787 0.000000 -8.755301 0.000000 89.222038 -8.610531 88.066818 169.839783 -5.022381 150.484390 -1.193602 3.677008 -59.431599 -5.531942 -0.251019 84.577202 0.000009 0.003100 21.480742 -172.188141 3.850911 147.201248 1.736778 -4.034998 -52.510845 4.664475 -0.688376 83.878296 -0.000009 -0.003102 21.483137 -0.130616 -0.166397 8.708304 0.077914 0.053788 7.339986 -0.397461 0.242723 7.368701 -1.284869 0.157519 6.634443 -0.447150 0.887137 -7.613065 -1.048624 -79.288094 179.708099 20.754967 45.333706 -12.078894 1.163382 -12.798342 -53.374653 24.361874 -12.547055 3.622032 5.286514 78.067093 -176.013107 -18.301802 -43.820122 -11.043255 -0.530882 11.708014 -50.050915 -20.071985 13.409377 3.710608 
-213.785080 120.492241 439.821899 0.000000 -8.876673 0.000000 89.270493 -8.698538 88.044060 169.812653 -5.119669 150.758942 -1.167833 3.678027 -59.612862 -5.651452 -0.254945 84.501045 0.000009 0.003100 21.480604 -172.086700 3.790154 147.013153 1.632157 -4.000507 -52.461281 4.722410 -0.717108 83.737015 -0.000009 -0.003102 21.483126 -0.119473 -0.161480 8.702047 0.083313 0.037026 7.328279 -0.371592 0.203224 7.362824 -1.100963 0.111607 6.710766 -0.300124 0.846332 -7.781820 -1.044625 -79.290367 179.697525 20.752495 45.237736 -11.873782 1.237429 -12.837257 -53.625813 24.300982 -12.590242 3.537554 4.765197 78.106079 -176.545685 -18.647305 -43.709225 -10.773868 -0.549586 11.736515 -50.216888 -19.977339 13.467330 3.743875 
